<svg xmlns="http://www.w3.org/2000/svg" version="1.1" xmlns:xlink="http://www.w3.org/1999/xlink" width="2000" height="108" viewBox="0 0 2000 108"><svg xml:space="preserve" width="2000" height="108" data-version="2" data-id="lg_tc9Wzxk870B05h2up9" viewBox="0 0 567 108" x="0" y="0"><rect width="100%" height="100%" fill="transparent"></rect><path fill="#303030" d="M180.245 70.05q0 4.67-2.16 8.07-2.17 3.4-6 5.23-3.82 1.83-9.01 1.83-4.08 0-7.52-.98-3.44-.98-5.86-2.34-2.43-1.36-3.62-2.29v-7.31h1.11q2.63 2.29 6.84 4.16t8.46 1.87q2.72 0 5.06-.81 2.33-.8 3.74-2.59 1.4-1.78 1.4-4.42 0-3.31-1.7-5.48-1.7-2.17-5.19-4.29l-10.28-6.46q-2.38-1.53-4.89-3.53-2.51-2-4.16-4.93-1.66-2.93-1.66-7.18 0-4.85 2.21-8.16 2.21-3.32 5.95-5.02 3.74-1.7 8.41-1.7 4.17 0 7.31.85 3.15.85 5.36 2.13 2.21 1.27 3.48 2.55v7.31h-1.19q-2.12-2.47-6.03-4.21-3.91-1.74-8.76-1.74-3.99 0-6.58 1.91-2.6 1.91-2.6 5.48 0 3.32 2.3 5.7 2.29 2.38 5.52 4.42l9.52 5.95q2.89 1.78 5.27 3.99 2.38 2.21 3.83 5.1 1.44 2.89 1.44 6.89" paint-order="stroke"></path><rect width="35.44" height="61.46" x="-17.72" y="-30.73" fill="none" rx="0" ry="0" transform="translate(163.03 54.95)"></rect><path fill="#303030" d="M177.105 24.66h7.65l10.03 31.19h7.14l10.03-31.19h7.65v1.53l-12.24 36.63h-5.27v21.34h-7.48V62.91h-5.27l-12.24-36.72Z" paint-order="stroke"></path><rect width="42.5" height="59.5" x="-21.25" y="-29.75" fill="none" rx="0" ry="0" transform="translate(198.85 54.91)"></rect><path fill="#303030" d="M252.925 24.66h7.39v59.5h-10.28l-20.49-47.86h-1.1l.17 47.86h-7.31v-59.5h10.28l20.57 48.11h1.11Z" paint-order="stroke"></path><rect width="39.01" height="59.5" x="-19.5" y="-29.75" fill="none" rx="0" ry="0" transform="translate(241.31 54.91)"></rect><path fill="#303030" d="M264.735 54.41q0-7.82 2.13-13.6 2.12-5.78 5.74-9.57 3.61-3.78 8.2-5.65 4.59-1.87 9.52-1.87 4.76 0 7.86 1.02 3.1 1.02 4.46 2.38v7.31h-1.36q-1.44-1.7-4.08-2.68-2.63-.97-6.54-.97-5.27 0-9.39 2.72-4.13 2.72-6.46 7.99-2.34 5.27-2.34 12.92t2.34 12.92q2.33 5.27 6.41 7.99 4.08 2.72 9.35 2.72 3.91 0 6.59-.98 2.68-.98 4.12-2.68h1.36v7.31q-1.36 1.28-4.46 2.34-3.1 1.06-8.03 1.06-5.02 0-9.61-1.87t-8.16-5.65q-3.57-3.78-5.61-9.56-2.04-5.78-2.04-13.6" paint-order="stroke"></path><rect width="37.91" height="61.37" x="-18.95" y="-30.68" fill="none" rx="0" ry="0" transform="translate(284.19 54.9)"></rect><path fill="#303030" d="M322.285 24.66h-15.22v59.5h15.22q7.14 0 12.79-3.19 5.65-3.19 8.93-9.78 3.27-6.58 3.27-16.78 0-10.29-3.27-16.83-3.28-6.55-8.93-9.74-5.65-3.18-12.79-3.18m-.17 52.53h-7.57V31.63h7.57q7.82 0 12.66 5.86 4.85 5.87 4.85 16.92 0 10.79-4.8 16.78-4.81 6-12.71 6" paint-order="stroke"></path><rect width="40.21" height="59.5" x="-20.11" y="-29.75" fill="none" rx="0" ry="0" transform="translate(327.67 54.91)"></rect><path fill="#303030" d="M349.145 54.41q0-10.88 3.48-17.64 3.49-6.76 9.14-9.95 5.65-3.18 12.28-3.18 6.63 0 12.29 3.18 5.65 3.19 9.13 9.95 3.49 6.76 3.49 17.64 0 10.79-3.49 17.59-3.48 6.8-9.13 9.99-5.66 3.19-12.29 3.19-6.63 0-12.28-3.19-5.65-3.19-9.14-9.99-3.48-6.8-3.48-17.59m7.73 0q0 7.9 2.26 13.17 2.25 5.27 6.16 7.86 3.91 2.6 8.75 2.6 4.76 0 8.67-2.6 3.91-2.59 6.25-7.86 2.34-5.27 2.34-13.17 0-7.99-2.38-13.22t-6.29-7.82q-3.91-2.59-8.59-2.59-4.84 0-8.75 2.63-3.91 2.64-6.16 7.86-2.26 5.23-2.26 13.14" paint-order="stroke"></path><rect width="49.81" height="61.54" x="-24.91" y="-30.77" fill="none" rx="0" ry="0" transform="translate(374.55 54.91)"></rect><path fill="#303030" d="M400.905 54.41q0-10.88 3.49-17.64 3.48-6.76 9.14-9.95 5.65-3.18 12.28-3.18 6.63 0 12.28 3.18 5.65 3.19 9.14 9.95 3.48 6.76 3.48 17.64 0 10.79-3.48 17.59-3.49 6.8-9.14 9.99-5.65 3.19-12.28 3.19-6.63 0-12.28-3.19-5.66-3.19-9.14-9.99-3.49-6.8-3.49-17.59m7.74 0q0 7.9 2.25 13.17t6.16 7.86q3.91 2.6 8.76 2.6 4.76 0 8.67-2.6 3.91-2.59 6.25-7.86 2.33-5.27 2.33-13.17 0-7.99-2.38-13.22t-6.29-7.82q-3.91-2.59-8.58-2.59-4.85 0-8.76 2.63-3.91 2.64-6.16 7.86-2.25 5.23-2.25 13.14" paint-order="stroke"></path><rect width="49.81" height="61.54" x="-24.91" y="-30.77" fill="none" rx="0" ry="0" transform="translate(426.31 54.91)"></rect><path fill="#303030" d="M470.355 24.66h-15.22v59.5h15.22q7.14 0 12.79-3.19 5.65-3.19 8.93-9.78 3.27-6.58 3.27-16.78 0-10.29-3.27-16.83-3.28-6.55-8.93-9.74-5.65-3.18-12.79-3.18m-.17 52.53h-7.57V31.63h7.57q7.82 0 12.66 5.86 4.85 5.87 4.85 16.92 0 10.79-4.8 16.78-4.81 6-12.71 6" paint-order="stroke"></path><rect width="40.21" height="59.5" x="-20.11" y="-29.75" fill="none" rx="0" ry="0" transform="translate(475.74 54.91)"></rect><path fill="#303030" d="M499.675 24.66h7.48v52.7h20.15v6.8h-27.63Z" paint-order="stroke"></path><rect width="27.63" height="59.5" x="-13.81" y="-29.75" fill="none" rx="0" ry="0" transform="translate(513.99 54.91)"></rect><path fill="#303030" d="M560.455 24.66v6.8h-22.27v20.23q2.8-1.19 6.33-1.83 3.53-.64 7.18-.81 3.66-.17 6.63.34v6.46l-.68.51q-2.29-.68-5.73-.68-3.45 0-7.1.6-3.66.59-6.63 1.95v19.13h22.27v6.8h-29.75v-59.5Z" paint-order="stroke"></path><rect width="29.75" height="59.5" x="-14.88" y="-29.75" fill="none" rx="0" ry="0" transform="translate(546.08 54.91)"></rect><circle r="21.7" fill="#ec0000" transform="translate(38.67 73.75)scale(1.5264)"></circle><circle r="21.7" fill="#07c100" transform="translate(87.53 73.75)scale(1.5264)"></circle><circle r="21.7" fill="#286cff" transform="translate(63.55 34.25)scale(1.5264)"></circle></svg></svg>